<?xml version="1.0" encoding="UTF-8" standalone="no"?>
<!DOCTYPE svg PUBLIC "-//W3C//DTD SVG 1.1//EN"
 "http://www.w3.org/Graphics/SVG/1.1/DTD/svg11.dtd">
<!-- Generated by graphviz version 2.38.0 (20140413.2041)
 -->
<!-- Title: model Pages: 1 -->
<svg width="532pt" height="620pt"
 viewBox="0.00 0.00 532.00 620.00" xmlns="http://www.w3.org/2000/svg" xmlns:xlink="http://www.w3.org/1999/xlink">
<g id="graph0" class="graph" transform="scale(1 1) rotate(0) translate(4 616)">
<title>model</title>
<polygon fill="white" stroke="none" points="-4,4 -4,-616 528,-616 528,4 -4,4"/>
<g id="clust1" class="cluster"><title>cluster__site</title>
<path fill="none" stroke="#263238" d="M172,-168C172,-168 504,-168 504,-168 510,-168 516,-174 516,-180 516,-180 516,-530 516,-530 516,-536 510,-542 504,-542 504,-542 172,-542 172,-542 166,-542 160,-536 160,-530 160,-530 160,-180 160,-180 160,-174 166,-168 172,-168"/>
<text text-anchor="start" x="293.819" y="-526.4" font-family="Helvetica,sans-Serif" font-size="12.00" fill="#263238">eCommerce Site</text>
<text text-anchor="start" x="308.488" y="-513.6" font-family="Helvetica,sans-Serif" font-size="8.00" fill="#263238">[Internal System]</text>
</g>
<g id="clust2" class="cluster"><title>cluster__orders</title>
<path fill="none" stroke="#263238" d="M20,-8C20,-8 140,-8 140,-8 146,-8 152,-14 152,-20 152,-20 152,-252 152,-252 152,-258 146,-264 140,-264 140,-264 20,-264 20,-264 14,-264 8,-258 8,-252 8,-252 8,-20 8,-20 8,-14 14,-8 20,-8"/>
<text text-anchor="start" x="24.9746" y="-248.4" font-family="Helvetica,sans-Serif" font-size="12.00" fill="#263238">Orders Management</text>
<text text-anchor="start" x="49.9883" y="-235.6" font-family="Helvetica,sans-Serif" font-size="8.00" fill="#263238">[Internal System]</text>
</g>
<!-- site&#45;reverse&#45;proxy&#45;varnish -->
<g id="node1" class="node"><title>site&#45;reverse&#45;proxy&#45;varnish</title>
<defs>
<linearGradient id="l_0" gradientUnits="userSpaceOnUse" x1="452" y1="-494" x2="452" y2="-454" >
<stop offset="0" style="stop-color:#eceff1;stop-opacity:1.;"/>
<stop offset="1" style="stop-color:#90a4ae;stop-opacity:1.;"/>
</linearGradient>
</defs>
<path fill="url(#l_0)" stroke="#263238" d="M489,-494C489,-494 415,-494 415,-494 409,-494 403,-488 403,-482 403,-482 403,-466 403,-466 403,-460 409,-454 415,-454 415,-454 489,-454 489,-454 495,-454 501,-460 501,-466 501,-466 501,-482 501,-482 501,-488 495,-494 489,-494"/>
<text text-anchor="start" x="412.654" y="-478.4" font-family="Helvetica,sans-Serif" font-size="12.00" fill="#263238">Reverse Proxy</text>
<text text-anchor="start" x="413.607" y="-465.6" font-family="Helvetica,sans-Serif" font-size="8.00" fill="#263238">[Container: Varnish 4]</text>
</g>
<!-- site&#45;web&#45;server&#45;apache -->
<g id="node2" class="node"><title>site&#45;web&#45;server&#45;apache</title>
<defs>
<linearGradient id="l_1" gradientUnits="userSpaceOnUse" x1="452" y1="-414" x2="452" y2="-374" >
<stop offset="0" style="stop-color:#eceff1;stop-opacity:1.;"/>
<stop offset="1" style="stop-color:#90a4ae;stop-opacity:1.;"/>
</linearGradient>
</defs>
<path fill="url(#l_1)" stroke="#263238" d="M491.5,-414C491.5,-414 412.5,-414 412.5,-414 406.5,-414 400.5,-408 400.5,-402 400.5,-402 400.5,-386 400.5,-386 400.5,-380 406.5,-374 412.5,-374 412.5,-374 491.5,-374 491.5,-374 497.5,-374 503.5,-380 503.5,-386 503.5,-386 503.5,-402 503.5,-402 503.5,-408 497.5,-414 491.5,-414"/>
<text text-anchor="start" x="420.93" y="-398.4" font-family="Helvetica,sans-Serif" font-size="12.00" fill="#263238">Web Server</text>
<text text-anchor="start" x="410.691" y="-385.6" font-family="Helvetica,sans-Serif" font-size="8.00" fill="#263238">[Container: Apache 2.4]</text>
</g>
<!-- site&#45;reverse&#45;proxy&#45;varnish&#45;&gt;site&#45;web&#45;server&#45;apache -->
<g id="edge1" class="edge"><title>site&#45;reverse&#45;proxy&#45;varnish&#45;&gt;site&#45;web&#45;server&#45;apache</title>
<path fill="none" stroke="#263238" d="M452,-453.719C452,-444.84 452,-434.111 452,-424.266"/>
<polygon fill="#263238" stroke="#263238" points="455.5,-424.059 452,-414.059 448.5,-424.059 455.5,-424.059"/>
</g>
<!-- site&#45;web&#45;app&#45;php&#45;fpm -->
<g id="node3" class="node"><title>site&#45;web&#45;app&#45;php&#45;fpm</title>
<defs>
<linearGradient id="l_2" gradientUnits="userSpaceOnUse" x1="452" y1="-334" x2="452" y2="-294" >
<stop offset="0" style="stop-color:#eceff1;stop-opacity:1.;"/>
<stop offset="1" style="stop-color:#90a4ae;stop-opacity:1.;"/>
</linearGradient>
</defs>
<path fill="url(#l_2)" stroke="#263238" d="M496,-334C496,-334 408,-334 408,-334 402,-334 396,-328 396,-322 396,-322 396,-306 396,-306 396,-300 402,-294 408,-294 408,-294 496,-294 496,-294 502,-294 508,-300 508,-306 508,-306 508,-322 508,-322 508,-328 502,-334 496,-334"/>
<text text-anchor="start" x="409.077" y="-318.4" font-family="Helvetica,sans-Serif" font-size="12.00" fill="#263238">Web Application</text>
<text text-anchor="start" x="405.539" y="-305.6" font-family="Helvetica,sans-Serif" font-size="8.00" fill="#263238">[Container: PHP&#45;FPM 5.5]</text>
</g>
<!-- site&#45;web&#45;server&#45;apache&#45;&gt;site&#45;web&#45;app&#45;php&#45;fpm -->
<g id="edge2" class="edge"><title>site&#45;web&#45;server&#45;apache&#45;&gt;site&#45;web&#45;app&#45;php&#45;fpm</title>
<path fill="none" stroke="#263238" d="M452,-373.719C452,-364.84 452,-354.111 452,-344.266"/>
<polygon fill="#263238" stroke="#263238" points="455.5,-344.059 452,-334.059 448.5,-344.059 455.5,-344.059"/>
</g>
<!-- site&#45;rdbs&#45;postgres -->
<g id="node6" class="node"><title>site&#45;rdbs&#45;postgres</title>
<defs>
<linearGradient id="l_3" gradientUnits="userSpaceOnUse" x1="362" y1="-216" x2="362" y2="-176" >
<stop offset="0" style="stop-color:#eceff1;stop-opacity:1.;"/>
<stop offset="1" style="stop-color:#90a4ae;stop-opacity:1.;"/>
</linearGradient>
</defs>
<path fill="url(#l_3)" stroke="#263238" d="M414,-216C414,-216 310,-216 310,-216 304,-216 298,-210 298,-204 298,-204 298,-188 298,-188 298,-182 304,-176 310,-176 310,-176 414,-176 414,-176 420,-176 426,-182 426,-188 426,-188 426,-204 426,-204 426,-210 420,-216 414,-216"/>
<text text-anchor="start" x="307.965" y="-200.4" font-family="Helvetica,sans-Serif" font-size="12.00" fill="#263238">Relational Database</text>
<text text-anchor="start" x="318.422" y="-187.6" font-family="Helvetica,sans-Serif" font-size="8.00" fill="#263238">[Container: PostgreSQL]</text>
</g>
<!-- site&#45;web&#45;app&#45;php&#45;fpm&#45;&gt;site&#45;rdbs&#45;postgres -->
<g id="edge3" class="edge"><title>site&#45;web&#45;app&#45;php&#45;fpm&#45;&gt;site&#45;rdbs&#45;postgres</title>
<path fill="none" stroke="#263238" d="M437.138,-293.845C422.417,-274.871 399.731,-245.632 383.137,-224.243"/>
<polygon fill="#263238" stroke="#263238" points="385.779,-221.939 376.884,-216.183 380.248,-226.23 385.779,-221.939"/>
</g>
<!-- orders&#45;web&#45;server&#45;apache -->
<g id="node7" class="node"><title>orders&#45;web&#45;server&#45;apache</title>
<defs>
<linearGradient id="l_4" gradientUnits="userSpaceOnUse" x1="92" y1="-216" x2="92" y2="-176" >
<stop offset="0" style="stop-color:#eceff1;stop-opacity:1.;"/>
<stop offset="1" style="stop-color:#90a4ae;stop-opacity:1.;"/>
</linearGradient>
</defs>
<path fill="url(#l_4)" stroke="#263238" d="M131.5,-216C131.5,-216 52.5,-216 52.5,-216 46.5,-216 40.5,-210 40.5,-204 40.5,-204 40.5,-188 40.5,-188 40.5,-182 46.5,-176 52.5,-176 52.5,-176 131.5,-176 131.5,-176 137.5,-176 143.5,-182 143.5,-188 143.5,-188 143.5,-204 143.5,-204 143.5,-210 137.5,-216 131.5,-216"/>
<text text-anchor="start" x="60.9297" y="-200.4" font-family="Helvetica,sans-Serif" font-size="12.00" fill="#263238">Web Server</text>
<text text-anchor="start" x="50.6914" y="-187.6" font-family="Helvetica,sans-Serif" font-size="8.00" fill="#263238">[Container: Apache 2.4]</text>
</g>
<!-- site&#45;web&#45;app&#45;php&#45;fpm&#45;&gt;orders&#45;web&#45;server&#45;apache -->
<g id="edge4" class="edge"><title>site&#45;web&#45;app&#45;php&#45;fpm&#45;&gt;orders&#45;web&#45;server&#45;apache</title>
<path fill="none" stroke="#263238" d="M395.765,-295.982C392.811,-295.27 389.877,-294.603 387,-294 285.676,-272.746 248.363,-310.769 156,-264 137.885,-254.827 122.074,-238.411 110.7,-224.125"/>
<polygon fill="#263238" stroke="#263238" points="113.376,-221.862 104.531,-216.03 107.809,-226.105 113.376,-221.862"/>
</g>
<!-- site&#45;web&#45;server&#45;site&#45;management&#45;apache -->
<g id="node4" class="node"><title>site&#45;web&#45;server&#45;site&#45;management&#45;apache</title>
<defs>
<linearGradient id="l_5" gradientUnits="userSpaceOnUse" x1="265" y1="-414" x2="265" y2="-374" >
<stop offset="0" style="stop-color:#eceff1;stop-opacity:1.;"/>
<stop offset="1" style="stop-color:#90a4ae;stop-opacity:1.;"/>
</linearGradient>
</defs>
<path fill="url(#l_5)" stroke="#263238" d="M346.5,-414C346.5,-414 183.5,-414 183.5,-414 177.5,-414 171.5,-408 171.5,-402 171.5,-402 171.5,-386 171.5,-386 171.5,-380 177.5,-374 183.5,-374 183.5,-374 346.5,-374 346.5,-374 352.5,-374 358.5,-380 358.5,-386 358.5,-386 358.5,-402 358.5,-402 358.5,-408 352.5,-414 346.5,-414"/>
<text text-anchor="start" x="181.901" y="-398.4" font-family="Helvetica,sans-Serif" font-size="12.00" fill="#263238">Web Server [Site Management]</text>
<text text-anchor="start" x="223.691" y="-385.6" font-family="Helvetica,sans-Serif" font-size="8.00" fill="#263238">[Container: Apache 2.4]</text>
</g>
<!-- site&#45;web&#45;app&#45;site&#45;management&#45;php&#45;fpm -->
<g id="node5" class="node"><title>site&#45;web&#45;app&#45;site&#45;management&#45;php&#45;fpm</title>
<defs>
<linearGradient id="l_6" gradientUnits="userSpaceOnUse" x1="273" y1="-334" x2="273" y2="-294" >
<stop offset="0" style="stop-color:#eceff1;stop-opacity:1.;"/>
<stop offset="1" style="stop-color:#90a4ae;stop-opacity:1.;"/>
</linearGradient>
</defs>
<path fill="url(#l_6)" stroke="#263238" d="M365.5,-334C365.5,-334 180.5,-334 180.5,-334 174.5,-334 168.5,-328 168.5,-322 168.5,-322 168.5,-306 168.5,-306 168.5,-300 174.5,-294 180.5,-294 180.5,-294 365.5,-294 365.5,-294 371.5,-294 377.5,-300 377.5,-306 377.5,-306 377.5,-322 377.5,-322 377.5,-328 371.5,-334 365.5,-334"/>
<text text-anchor="start" x="178.549" y="-318.4" font-family="Helvetica,sans-Serif" font-size="12.00" fill="#263238">Web Application [Site Management]</text>
<text text-anchor="start" x="227.039" y="-305.6" font-family="Helvetica,sans-Serif" font-size="8.00" fill="#263238">[Container: PHP&#45;FPM 5.5]</text>
</g>
<!-- site&#45;web&#45;server&#45;site&#45;management&#45;apache&#45;&gt;site&#45;web&#45;app&#45;site&#45;management&#45;php&#45;fpm -->
<g id="edge5" class="edge"><title>site&#45;web&#45;server&#45;site&#45;management&#45;apache&#45;&gt;site&#45;web&#45;app&#45;site&#45;management&#45;php&#45;fpm</title>
<path fill="none" stroke="#263238" d="M266.978,-373.719C267.888,-364.84 268.989,-354.111 269.998,-344.266"/>
<polygon fill="#263238" stroke="#263238" points="273.507,-344.364 271.045,-334.059 266.543,-343.65 273.507,-344.364"/>
</g>
<!-- site&#45;web&#45;app&#45;site&#45;management&#45;php&#45;fpm&#45;&gt;site&#45;rdbs&#45;postgres -->
<g id="edge6" class="edge"><title>site&#45;web&#45;app&#45;site&#45;management&#45;php&#45;fpm&#45;&gt;site&#45;rdbs&#45;postgres</title>
<path fill="none" stroke="#263238" d="M287.697,-293.845C302.254,-274.871 324.688,-245.632 341.098,-224.243"/>
<polygon fill="#263238" stroke="#263238" points="343.971,-226.248 347.282,-216.183 338.418,-221.987 343.971,-226.248"/>
</g>
<!-- orders&#45;web&#45;app&#45;php&#45;fpm -->
<g id="node8" class="node"><title>orders&#45;web&#45;app&#45;php&#45;fpm</title>
<defs>
<linearGradient id="l_7" gradientUnits="userSpaceOnUse" x1="84" y1="-136" x2="84" y2="-96" >
<stop offset="0" style="stop-color:#eceff1;stop-opacity:1.;"/>
<stop offset="1" style="stop-color:#90a4ae;stop-opacity:1.;"/>
</linearGradient>
</defs>
<path fill="url(#l_7)" stroke="#263238" d="M128,-136C128,-136 40,-136 40,-136 34,-136 28,-130 28,-124 28,-124 28,-108 28,-108 28,-102 34,-96 40,-96 40,-96 128,-96 128,-96 134,-96 140,-102 140,-108 140,-108 140,-124 140,-124 140,-130 134,-136 128,-136"/>
<text text-anchor="start" x="41.0771" y="-120.4" font-family="Helvetica,sans-Serif" font-size="12.00" fill="#263238">Web Application</text>
<text text-anchor="start" x="37.5391" y="-107.6" font-family="Helvetica,sans-Serif" font-size="8.00" fill="#263238">[Container: PHP&#45;FPM 5.5]</text>
</g>
<!-- orders&#45;web&#45;server&#45;apache&#45;&gt;orders&#45;web&#45;app&#45;php&#45;fpm -->
<g id="edge7" class="edge"><title>orders&#45;web&#45;server&#45;apache&#45;&gt;orders&#45;web&#45;app&#45;php&#45;fpm</title>
<path fill="none" stroke="#263238" d="M90.0225,-175.719C89.1118,-166.84 88.0114,-156.111 87.0016,-146.266"/>
<polygon fill="#263238" stroke="#263238" points="90.4569,-145.65 85.9548,-136.059 83.4934,-146.364 90.4569,-145.65"/>
</g>
<!-- orders&#45;rdbs&#45;postgres -->
<g id="node9" class="node"><title>orders&#45;rdbs&#45;postgres</title>
<defs>
<linearGradient id="l_8" gradientUnits="userSpaceOnUse" x1="80" y1="-56" x2="80" y2="-16" >
<stop offset="0" style="stop-color:#eceff1;stop-opacity:1.;"/>
<stop offset="1" style="stop-color:#90a4ae;stop-opacity:1.;"/>
</linearGradient>
</defs>
<path fill="url(#l_8)" stroke="#263238" d="M132,-56C132,-56 28,-56 28,-56 22,-56 16,-50 16,-44 16,-44 16,-28 16,-28 16,-22 22,-16 28,-16 28,-16 132,-16 132,-16 138,-16 144,-22 144,-28 144,-28 144,-44 144,-44 144,-50 138,-56 132,-56"/>
<text text-anchor="start" x="25.9648" y="-40.4" font-family="Helvetica,sans-Serif" font-size="12.00" fill="#263238">Relational Database</text>
<text text-anchor="start" x="36.4219" y="-27.6" font-family="Helvetica,sans-Serif" font-size="8.00" fill="#263238">[Container: PostgreSQL]</text>
</g>
<!-- orders&#45;web&#45;app&#45;php&#45;fpm&#45;&gt;orders&#45;rdbs&#45;postgres -->
<g id="edge8" class="edge"><title>orders&#45;web&#45;app&#45;php&#45;fpm&#45;&gt;orders&#45;rdbs&#45;postgres</title>
<path fill="none" stroke="#263238" d="M83.0112,-95.7191C82.5559,-86.8402 82.0057,-76.1109 81.5008,-66.2658"/>
<polygon fill="#263238" stroke="#263238" points="84.985,-65.8667 80.9774,-56.0591 77.9942,-66.2253 84.985,-65.8667"/>
</g>
<!-- customer -->
<g id="node10" class="node"><title>customer</title>
<polygon fill="none" stroke="none" stroke-dasharray="5,2" points="488,-612 416,-612 416,-572 488,-572 488,-612"/>
<polyline fill="none" stroke="#263238" stroke-dasharray="5,2" points="416,-572 488,-572 "/>
<text text-anchor="start" x="425.993" y="-596.4" font-family="Helvetica,sans-Serif" font-size="12.00" fill="#263238">Customer</text>
<text text-anchor="start" x="426.211" y="-583.6" font-family="Helvetica,sans-Serif" font-size="8.00" fill="#263238">[External user]</text>
</g>
<!-- customer&#45;&gt;site&#45;reverse&#45;proxy&#45;varnish -->
<g id="edge9" class="edge"><title>customer&#45;&gt;site&#45;reverse&#45;proxy&#45;varnish</title>
<path fill="none" stroke="#263238" d="M452,-571.845C452,-553.458 452,-525.433 452,-504.253"/>
<polygon fill="#263238" stroke="#263238" points="455.5,-504.183 452,-494.183 448.5,-504.184 455.5,-504.183"/>
</g>
<!-- admin -->
<g id="node11" class="node"><title>admin</title>
<polygon fill="none" stroke="none" points="148,-494 58,-494 58,-454 148,-454 148,-494"/>
<polyline fill="none" stroke="#263238" points="58,-454 148,-454 "/>
<text text-anchor="start" x="67.6562" y="-478.4" font-family="Helvetica,sans-Serif" font-size="12.00" fill="#263238">Administrator</text>
<text text-anchor="start" x="77.8789" y="-465.6" font-family="Helvetica,sans-Serif" font-size="8.00" fill="#263238">[Internal User]</text>
</g>
<!-- admin&#45;&gt;site&#45;web&#45;server&#45;site&#45;management&#45;apache -->
<g id="edge10" class="edge"><title>admin&#45;&gt;site&#45;web&#45;server&#45;site&#45;management&#45;apache</title>
<path fill="none" stroke="#263238" d="M142.63,-453.919C164.874,-443.209 192.81,-429.758 216.371,-418.414"/>
<polygon fill="#263238" stroke="#263238" points="218.007,-421.511 225.499,-414.019 214.971,-415.204 218.007,-421.511"/>
</g>
<!-- admin&#45;&gt;orders&#45;web&#45;server&#45;apache -->
<g id="edge11" class="edge"><title>admin&#45;&gt;orders&#45;web&#45;server&#45;apache</title>
<path fill="none" stroke="#263238" d="M102.227,-453.592C100.324,-405.869 95.411,-282.585 93.1588,-226.076"/>
<polygon fill="#263238" stroke="#263238" points="96.6536,-225.873 92.758,-216.02 89.6591,-226.151 96.6536,-225.873"/>
</g>
</g>
</svg>
